<?xml version="1.0" standalone="no"?>
<!DOCTYPE svg PUBLIC "-//W3C//DTD SVG 20010904//EN"
 "http://www.w3.org/TR/2001/REC-SVG-20010904/DTD/svg10.dtd">
<svg version="1.0" xmlns="http://www.w3.org/2000/svg"
 width="275.000000pt" height="183.000000pt" viewBox="0 0 275.000000 183.000000"
 preserveAspectRatio="xMidYMid meet">

<g transform="translate(0.000000,183.000000) scale(0.100000,-0.100000)"
fill="#000000" stroke="none">
<path d="M720 1550 c0 -5 7 -6 17 -3 11 4 14 3 9 -5 -5 -9 0 -9 19 -2 34 13
38 13 29 -2 -4 -7 -3 -8 4 -4 8 4 12 0 12 -10 0 -14 3 -15 12 -6 9 9 9 15 1
23 -15 15 -103 23 -103 9z"/>
<path d="M1891 1503 c-12 -8 -18 -19 -15 -25 5 -7 12 -5 20 7 8 10 17 16 20
12 3 -3 17 -2 30 3 16 6 24 6 24 -1 0 -6 5 -7 10 -4 18 11 1 23 -34 23 -19 0
-44 -7 -55 -15z"/>
<path d="M730 1420 c-13 -8 -12 -10 3 -10 9 0 17 5 17 10 0 12 -1 12 -20 0z"/>
<path d="M780 1413 c48 -9 38 -18 -18 -17 -54 1 -58 0 -60 -22 -1 -13 2 -24 7
-24 6 0 12 -9 16 -20 5 -17 9 -18 28 -7 12 7 25 17 29 22 5 6 8 3 8 -7 0 -23
22 -28 37 -9 33 42 5 93 -49 90 -22 -2 -22 -2 2 -6z"/>
<path d="M1902 1359 c-40 -12 -49 -31 -28 -61 9 -12 16 -17 16 -10 0 7 5 10
10 7 6 -3 13 1 16 10 6 13 8 14 15 3 7 -10 9 -8 9 7 1 17 3 16 11 -5 l10 -25
19 25 c24 31 25 46 4 54 -20 8 -41 6 -82 -5z"/>
<path d="M760 1276 c0 -19 5 -38 10 -41 6 -4 10 10 10 34 0 23 -4 41 -10 41
-5 0 -10 -15 -10 -34z"/>
<path d="M1945 940 c0 -195 1 -275 2 -178 2 98 2 258 0 355 -1 98 -2 18 -2
-177z"/>
<path d="M768 1203 c-2 -5 -1 -150 2 -323 l5 -315 3 323 c2 290 0 339 -10 315z"/>
<path d="M838 1113 c7 -3 16 -2 19 1 4 3 -2 6 -13 5 -11 0 -14 -3 -6 -6z"/>
<path d="M1618 1093 c7 -3 16 -2 19 1 4 3 -2 6 -13 5 -11 0 -14 -3 -6 -6z"/>
<path d="M802 1055 c0 -16 2 -22 5 -12 2 9 2 23 0 30 -3 6 -5 -1 -5 -18z"/>
<path d="M816 1015 c-9 -25 5 -45 33 -45 30 0 51 16 51 38 0 9 -6 12 -16 8 -8
-3 -12 -2 -9 4 3 6 1 10 -4 10 -6 0 -11 -4 -11 -10 0 -5 -5 -10 -11 -10 -5 0
-7 5 -4 10 3 6 0 10 -8 10 -8 0 -17 -7 -21 -15z"/>
<path d="M1635 1011 c3 -6 -9 -11 -27 -13 -43 -4 -46 -33 -3 -34 48 -1 77 35
39 50 -8 3 -12 2 -9 -3z"/>
<path d="M852 940 c0 -14 2 -19 5 -12 2 6 2 18 0 25 -3 6 -5 1 -5 -13z"/>
<path d="M1063 652 c-28 -4 -29 -18 -4 -32 14 -7 22 -7 26 0 5 8 11 8 20 0 10
-8 15 -8 20 0 4 6 15 8 26 5 11 -4 19 -2 19 5 0 7 6 8 19 0 13 -7 22 -7 26 0
4 7 13 7 26 0 13 -8 19 -7 19 0 0 6 5 8 13 3 19 -12 47 -14 47 -3 0 7 7 7 21
-1 17 -9 23 -8 30 2 5 8 9 9 9 3 0 -6 7 -11 15 -11 8 0 15 5 15 10 0 5 7 4 15
-3 8 -7 15 -9 15 -6 0 4 9 2 19 -4 14 -7 22 -7 26 0 5 8 11 7 21 -1 20 -17 49
7 33 27 -9 11 -56 14 -233 12 -121 -1 -231 -4 -243 -6z"/>
<path d="M7 635 c-4 -8 -2 -17 3 -20 6 -4 10 3 10 14 0 25 -6 27 -13 6z"/>
<path d="M922 623 c9 -2 19 -12 21 -21 3 -12 5 -10 6 6 1 17 -4 22 -21 21 -16
-1 -18 -3 -6 -6z"/>
<path d="M961 608 c0 -22 1 -22 8 -3 l8 20 5 -20 c5 -18 6 -18 7 3 1 13 -5 22
-14 22 -9 0 -15 -9 -14 -22z"/>
<path d="M1008 623 c7 -3 16 -2 19 1 4 3 -2 6 -13 5 -11 0 -14 -3 -6 -6z"/>
<path d="M1668 603 l6 -28 6 25 7 25 5 -25 c5 -25 5 -25 7 3 1 20 -4 27 -18
27 -15 0 -17 -5 -13 -27z"/>
<path d="M1710 605 c0 -14 4 -25 9 -25 5 0 7 10 3 22 -4 17 -2 20 11 15 10 -4
17 -2 17 3 0 6 -9 10 -20 10 -15 0 -20 -7 -20 -25z"/>
<path d="M828 573 c-14 -4 -17 -21 -17 -129 l-1 -124 40 0 40 0 0 110 c0 103
-1 110 -20 111 -54 4 -62 15 -19 28 33 9 11 13 -23 4z"/>
<path d="M1035 551 c-3 -6 -13 -8 -23 -5 -11 4 -13 3 -5 -3 9 -6 13 -56 13
-169 2 -150 3 -160 21 -161 17 -2 19 5 19 55 l1 57 20 -24 c15 -18 19 -34 15
-65 -2 -23 -5 -46 -5 -53 -1 -6 -10 -10 -21 -8 -11 2 -20 0 -20 -5 0 -5 -13
-2 -29 8 -16 9 -27 20 -25 24 2 3 -1 10 -7 14 -8 4 -9 3 -5 -4 4 -7 2 -12 -4
-12 -6 0 -8 -4 -5 -10 3 -5 1 -10 -4 -10 -12 0 -12 -2 -14 62 -1 26 -8 53 -15
60 -9 9 -12 9 -12 0 0 -7 -7 -12 -15 -12 -8 0 -15 5 -15 11 0 5 -11 -2 -24
-18 -24 -28 -24 -28 -45 -9 -21 19 -22 19 -45 -3 l-23 -22 -15 22 c-8 13 -19
19 -26 15 -17 -10 -15 -29 2 -23 10 4 13 1 9 -9 -3 -7 -9 -14 -15 -14 -5 0 -6
-4 -3 -10 3 -5 0 -10 -7 -10 -8 0 -9 -3 -3 -8 20 -14 17 -35 -4 -29 -15 4 -22
-2 -30 -22 l-9 -26 -1 26 c-1 32 -26 45 -40 21 -6 -9 -11 -12 -11 -7 -1 6 -3
18 -5 28 -2 12 4 17 23 18 15 1 34 2 42 3 33 2 57 36 26 36 -20 0 -46 39 -46
67 0 30 -20 30 -21 1 0 -13 -3 -17 -6 -10 -2 6 -11 12 -19 12 -8 0 -14 5 -14
10 0 6 -7 10 -16 10 -8 0 -12 5 -9 10 3 6 0 10 -9 10 -8 0 -17 6 -19 13 -4 9
-6 9 -6 -1 -1 -7 -5 -11 -10 -7 -5 3 -12 -3 -15 -13 -4 -13 -16 -19 -36 -19
-16 0 -27 4 -24 9 3 4 -2 8 -10 8 -9 0 -16 -5 -16 -11 0 -5 -5 -7 -10 -4 -6 3
-10 2 -10 -4 0 -6 -6 -9 -12 -6 -7 2 -48 6 -90 8 -62 4 -75 2 -71 -9 7 -20 -7
-17 -23 4 -7 9 -14 13 -14 7 0 -8 -43 -11 -97 -6 -6 1 -9 9 -6 20 4 15 -2 20
-29 24 -41 6 -49 0 -24 -19 18 -13 18 -14 2 -14 -9 0 -15 -4 -12 -9 3 -5 -1
-14 -8 -20 -11 -9 -15 -47 -15 -167 l-2 -154 1183 1 c722 0 1176 4 1168 10
-13 7 -12 9 2 9 9 0 20 -5 23 -10 10 -16 127 -4 137 14 7 12 20 15 58 11 30
-3 50 -1 50 5 0 6 5 10 11 10 5 0 8 -4 5 -9 -10 -16 55 -22 71 -6 8 8 21 15
29 15 12 0 14 29 14 169 l0 168 -53 0 c-30 -1 -66 6 -86 16 -19 9 -36 15 -39
13 -2 -3 10 -12 27 -21 39 -20 39 -26 -2 -46 -29 -14 -37 -15 -58 -3 -13 7
-32 13 -43 14 -15 0 -16 -3 -6 -15 11 -13 7 -15 -31 -11 -24 3 -49 5 -56 5 -7
1 -10 8 -6 19 3 9 3 14 -1 10 -4 -3 -16 1 -27 10 -11 9 -32 18 -47 20 -15 1
-57 5 -94 8 -57 5 -68 9 -68 25 0 10 -4 21 -10 24 -6 3 -10 -4 -10 -17 l-1
-23 -14 25 c-11 20 -14 21 -15 7 0 -10 4 -27 10 -37 12 -23 -9 -33 -54 -25
-23 5 -37 1 -53 -14 l-21 -20 -16 40 c-16 40 -36 45 -36 9 0 -11 -5 -31 -12
-45 l-12 -26 -13 32 c-7 17 -13 64 -13 103 l0 73 -31 0 -32 0 7 -70 c5 -60 4
-68 -8 -58 -19 16 -85 10 -96 -9 -8 -13 -9 -13 -14 0 -3 8 -7 43 -9 78 -5 67
-9 78 -28 67 -8 -6 -10 -30 -5 -86 4 -52 3 -79 -4 -79 -5 0 -10 -6 -10 -14 0
-8 -7 -22 -16 -30 -9 -9 -13 -24 -9 -35 4 -13 -1 -24 -15 -34 -19 -13 -19 -16
-6 -56 9 -24 11 -41 5 -41 -6 0 -6 -7 0 -19 9 -15 7 -20 -9 -24 -11 -3 -23 -1
-26 4 -3 5 -1 9 5 9 17 0 17 44 0 70 -21 32 -29 79 -36 214 -4 84 -2 111 9
117 8 5 2 7 -17 6 l-30 -2 -1 -100 c-1 -122 -12 -233 -25 -240 -5 -4 -9 -14
-8 -23 0 -14 2 -13 9 3 6 16 9 17 13 5 12 -33 3 -100 -13 -100 -6 0 -10 7 -10
15 0 8 -5 15 -11 15 -5 0 -8 -4 -5 -9 4 -5 -8 -12 -25 -16 -35 -8 -56 10 -38
31 7 9 4 19 -10 33 -18 18 -18 20 -3 27 9 4 21 6 26 5 5 -1 3 5 -4 15 -12 14
-12 18 0 28 8 6 17 30 18 54 3 33 0 42 -12 42 -9 0 -16 -6 -17 -12 0 -13 -8 1
-29 60 -14 36 -30 43 -30 12 0 -29 -46 -70 -80 -70 l-30 0 -1 78 c0 42 -2 88
-3 100 -2 13 4 31 13 40 15 15 15 15 -1 9 -10 -3 -20 -1 -24 5 -11 18 -24 -14
-25 -62 0 -32 -3 -39 -8 -26 -7 18 -8 18 -14 -5 -4 -13 -7 -37 -7 -54 0 -31
-29 -122 -30 -95 0 17 -54 53 -64 43 -3 -3 -6 39 -6 95 0 92 -9 128 -25 103z
m971 -308 c-8 -135 -27 -117 -28 26 0 36 11 60 30 61 1 0 0 -39 -2 -87z
m-1936 67 c0 -5 -7 -7 -15 -4 -8 4 -15 8 -15 10 0 2 7 4 15 4 8 0 15 -4 15
-10z m60 0 c0 -5 -5 -10 -11 -10 -5 0 -7 5 -4 10 3 6 8 10 11 10 2 0 4 -4 4
-10z m146 -9 c-5 -8 -56 -3 -56 5 0 2 14 4 31 4 16 0 28 -4 25 -9z m2278 -10
c3 -4 -6 -7 -20 -5 -35 3 -43 14 -11 14 14 0 28 -4 31 -9z m-434 -16 c-7 -8
-8 -15 -3 -15 5 0 10 -6 10 -14 0 -8 -6 -12 -14 -9 -7 3 -13 9 -13 13 0 18 13
40 22 40 6 0 5 -6 -2 -15z m-277 -2 c-7 -2 -19 -2 -25 0 -7 3 -2 5 12 5 14 0
19 -2 13 -5z m-576 -53 c2 -11 -3 -20 -10 -20 -9 0 -8 -3 1 -9 10 -6 7 -10
-12 -13 -14 -3 -26 -1 -26 3 0 5 5 9 10 9 6 0 9 3 8 8 -1 4 2 17 6 30 9 26 18
22 23 -8z m1196 23 c-7 -2 -19 -2 -25 0 -7 3 -2 5 12 5 14 0 19 -2 13 -5z
m-1713 -13 c0 -5 -5 -10 -11 -10 -5 0 -7 5 -4 10 3 6 8 10 11 10 2 0 4 -4 4
-10z m1797 -25 c3 -20 3 -20 -6 0 -9 18 -10 17 -10 -7 -1 -18 -6 -28 -16 -28
-8 0 -15 5 -15 11 0 5 5 7 10 4 6 -3 10 1 10 9 0 10 -9 14 -27 14 -16 -1 -39
0 -53 1 -45 4 9 21 60 18 36 -2 45 -6 47 -22z m-1147 1 c0 -3 -4 -8 -10 -11
-5 -3 -10 -1 -10 4 0 6 5 11 10 11 6 0 10 -2 10 -4z m-550 -24 c0 -5 -13 -9
-30 -10 -34 -1 -81 -31 -75 -49 2 -6 -3 -14 -11 -17 -8 -3 -14 -16 -15 -28 0
-13 -3 -17 -6 -9 -9 22 18 88 41 99 45 22 96 29 96 14z m1714 -18 c3 -8 10
-12 16 -9 5 3 10 0 10 -8 0 -13 -58 -31 -69 -21 -6 6 21 54 30 54 4 0 10 -7
13 -16z m-654 2 c0 -2 -7 -6 -15 -10 -8 -3 -15 -1 -15 4 0 6 7 10 15 10 8 0
15 -2 15 -4z m-1515 -26 c3 -5 2 -10 -4 -10 -5 0 -13 5 -16 10 -3 6 -2 10 4
10 5 0 13 -4 16 -10z m1605 -10 c0 -5 -2 -10 -4 -10 -3 0 -8 5 -11 10 -3 6 -1
10 4 10 6 0 11 -4 11 -10z m-1333 -52 c-2 -13 -4 -5 -4 17 -1 22 1 32 4 23 2
-10 2 -28 0 -40z m303 48 c0 -2 -7 -7 -16 -10 -8 -3 -12 -2 -9 4 6 10 25 14
25 6z m290 -27 c0 -8 5 -7 15 1 13 11 14 10 9 -4 -8 -20 -44 -21 -44 -1 0 8 5
15 10 15 6 0 10 -5 10 -11z m346 -25 c1 -9 0 -13 -4 -10 -3 4 -7 14 -8 22 -1
9 0 13 4 10 3 -4 7 -14 8 -22z m918 10 c4 -10 1 -14 -6 -12 -15 5 -23 28 -10
28 5 0 13 -7 16 -16z m-1281 -17 c4 3 7 1 7 -5 0 -17 -18 -24 -37 -13 -10 6
-13 11 -6 11 7 0 10 7 7 18 -5 16 -5 16 9 0 8 -10 17 -15 20 -11z m664 -19
c-3 -8 -6 -5 -6 6 -1 11 2 17 5 13 3 -3 4 -12 1 -19z m-610 6 c-3 -3 -12 -4
-19 -1 -8 3 -5 6 6 6 11 1 17 -2 13 -5z m-637 -19 c0 -17 -16 -20 -25 -5 -4 6
-11 8 -16 5 -5 -4 -9 -1 -9 4 0 6 11 11 25 11 16 0 25 -6 25 -15z m937 -7 c-3
-8 -6 -5 -6 6 -1 11 2 17 5 13 3 -3 4 -12 1 -19z m826 -15 c-7 -2 -19 -2 -25
0 -7 3 -2 5 12 5 14 0 19 -2 13 -5z"/>
<path d="M1070 550 c0 -5 5 -10 11 -10 5 0 7 5 4 10 -3 6 -8 10 -11 10 -2 0
-4 -4 -4 -10z"/>
<path d="M1167 553 c-4 -3 -7 -11 -7 -17 0 -6 5 -5 12 2 6 6 9 14 7 17 -3 3
-9 2 -12 -2z"/>
<path d="M1297 553 c-4 -3 -7 -11 -7 -17 0 -6 5 -5 12 2 6 6 9 14 7 17 -3 3
-9 2 -12 -2z"/>
<path d="M1330 551 c0 -5 5 -13 10 -16 6 -3 10 -2 10 4 0 5 -4 13 -10 16 -5 3
-10 2 -10 -4z"/>
<path d="M1403 539 c8 -5 24 -6 37 -4 37 7 33 12 -11 12 -26 0 -36 -3 -26 -8z"/>
<path d="M1580 539 c0 -4 10 -6 21 -4 32 6 34 13 4 13 -14 0 -25 -4 -25 -9z"/>
<path d="M1740 541 c0 -4 11 -7 25 -7 14 0 25 3 25 7 0 3 -11 7 -25 7 -14 0
-25 -4 -25 -7z"/>
<path d="M720 386 c0 -14 -4 -28 -10 -31 -15 -10 -12 -35 5 -35 11 0 15 12 15
45 0 25 -2 45 -5 45 -3 0 -5 -11 -5 -24z"/>
<path d="M638 383 c7 -3 16 -2 19 1 4 3 -2 6 -13 5 -11 0 -14 -3 -6 -6z"/>
<path d="M660 330 c0 -11 5 -20 10 -20 6 0 10 9 10 20 0 11 -4 20 -10 20 -5 0
-10 -9 -10 -20z"/>
<path d="M1436 201 c-4 -6 -1 -11 6 -11 8 0 9 -3 3 -8 -12 -8 -13 -38 -2 -46
4 -3 5 -3 3 0 -3 3 0 18 5 32 10 26 -3 54 -15 33z"/>
<path d="M1018 193 c7 -3 16 -2 19 1 4 3 -2 6 -13 5 -11 0 -14 -3 -6 -6z"/>
<path d="M2717 34 c-8 -8 3 -34 15 -34 6 0 6 6 -1 14 -10 11 -8 15 6 19 14 4
14 5 2 6 -9 0 -18 -2 -22 -5z"/>
<path d="M2608 3 c12 -2 32 -2 45 0 12 2 2 4 -23 4 -25 0 -35 -2 -22 -4z"/>
</g>
</svg>
